name processed_emg_signals						
nRows=103						
nColumns=7						
 						
endheader						
time	LGLTMED	LRF	LADDLONG	LST	LTA	LGM
1.255	0.042169941	0.034086247	0.040492234	0.037044675	0.174718154	0.38252305
1.256	0.042088501	0.034215787	0.04074557	0.03687671	0.178729728	0.37889352
1.257	0.042007075	0.034348352	0.040999855	0.036705523	0.182842518	0.375216017
1.258	0.041925669	0.034483868	0.041254969	0.036531305	0.187055499	0.371492652
1.259	0.041844291	0.034622259	0.041510788	0.036354249	0.191367533	0.367725532
1.26	0.041762952	0.034763447	0.041767188	0.036174554	0.195777362	0.363916758
1.261	0.041681667	0.034907354	0.042024045	0.035992421	0.200283617	0.36006842
1.262	0.041600456	0.0350539	0.042281232	0.035808053	0.20488481	0.356182605
1.263	0.04151934	0.035203002	0.042538623	0.035621656	0.209579342	0.352261389
1.264	0.041438344	0.035354576	0.042796089	0.035433441	0.214365498	0.34830684
1.265	0.041357497	0.035508536	0.0430535	0.035243617	0.219241455	0.344321018
1.266	0.041276831	0.035664794	0.043310728	0.035052398	0.224205277	0.340305972
1.267	0.04119638	0.035823259	0.043567638	0.034859999	0.22925492	0.336263743
1.268	0.041116185	0.035983838	0.0438241	0.034666635	0.234388235	0.332196363
1.269	0.041036285	0.036146435	0.044079979	0.034472521	0.239602965	0.328105852
1.27	0.040956727	0.036310952	0.04433514	0.034277877	0.244896752	0.323994222
1.271	0.040877557	0.036477289	0.044589446	0.034082918	0.250267138	0.319863475
1.272	0.040798826	0.036645342	0.04484276	0.033887862	0.255711568	0.315715602
1.273	0.040720589	0.036815006	0.045094945	0.033692927	0.26122739	0.311552584
1.274	0.040642901	0.036986172	0.045345859	0.03349833	0.266811862	0.307376393
1.275	0.040565823	0.037158729	0.045595364	0.033304286	0.272462152	0.303188989
1.276	0.040489416	0.037332562	0.045843317	0.033111011	0.278175342	0.298992323
1.277	0.040413744	0.037507556	0.046089576	0.032918718	0.283948433	0.294788334
1.278	0.040338875	0.03768359	0.046333998	0.032727619	0.289778346	0.290578951
1.279	0.040264877	0.037860543	0.046576439	0.032537925	0.295661929	0.28636609
1.28	0.040191823	0.03803829	0.046816755	0.032349843	0.301595958	0.282151657
1.281	0.040119786	0.038216705	0.047054801	0.032163582	0.30757714	0.277937544
1.282	0.040048841	0.038395656	0.04729043	0.031979343	0.313602124	0.273725633
1.283	0.039979065	0.038575012	0.047523497	0.031797328	0.319667495	0.269517789
1.284	0.039910538	0.038754639	0.047753857	0.031617735	0.325769787	0.265315865
1.285	0.03984334	0.038934399	0.047981361	0.031440759	0.331905483	0.261121699
1.286	0.039777553	0.039114154	0.048205865	0.031266591	0.338071021	0.256937112
1.287	0.039713259	0.039293763	0.048427221	0.031095421	0.344262798	0.25276391
1.288	0.039650543	0.039473082	0.048645285	0.030927432	0.350477175	0.24860388
1.289	0.03958949	0.039651965	0.048859909	0.030762805	0.356710479	0.24445879
1.29	0.039530185	0.039830268	0.049070951	0.030601716	0.362959014	0.240330389
1.291	0.039472714	0.040007839	0.049278264	0.030444339	0.369219058	0.236220405
1.292	0.039417164	0.040184531	0.049481707	0.030290841	0.375486874	0.232130545
1.293	0.03936362	0.040360191	0.049681136	0.030141385	0.381758708	0.228062491
1.294	0.03931217	0.040534667	0.049876412	0.02999613	0.388030802	0.224017902
1.295	0.039262899	0.040707804	0.050067395	0.02985523	0.394299389	0.219998411
1.296	0.039215894	0.040879448	0.050253948	0.029718834	0.400560706	0.216005625
1.297	0.03917124	0.041049445	0.050435935	0.029587086	0.406810994	0.212041125
1.298	0.03912902	0.041217636	0.050613223	0.029460124	0.4130465	0.20810646
1.299	0.039089319	0.041383866	0.050785681	0.02933808	0.419263487	0.204203153
1.3	0.039052219	0.041547978	0.050953179	0.029221083	0.425458236	0.200332695
1.301	0.039017801	0.041709815	0.051115594	0.029109255	0.431627046	0.196496544
1.302	0.038986144	0.04186922	0.051272801	0.029002711	0.437766246	0.192696128
1.303	0.038957326	0.042026035	0.051424682	0.028901561	0.443872192	0.188932839
1.304	0.038931424	0.042180105	0.051571121	0.02880591	0.449941273	0.185208038
1.305	0.038908512	0.042331273	0.051712005	0.028715856	0.455969916	0.181523047
1.306	0.03888866	0.042479385	0.051847225	0.02863149	0.46195459	0.177879155
1.307	0.03887194	0.042624286	0.051976678	0.0285529	0.467891808	0.174277614
1.308	0.038858417	0.042765823	0.052100263	0.028480164	0.47377813	0.170719638
1.309	0.038848156	0.042903844	0.052217885	0.028413355	0.479610169	0.167206403
1.31	0.038841219	0.043038198	0.052329452	0.02835254	0.485384595	0.163739047
1.311	0.038837663	0.043168738	0.05243488	0.028297781	0.491098133	0.160318668
1.312	0.038837545	0.043295316	0.052534087	0.028249129	0.496747573	0.156946327
1.313	0.038840916	0.043417788	0.052626997	0.028206634	0.502329769	0.153623041
1.314	0.038847825	0.043536011	0.052713541	0.028170335	0.507841643	0.15034979
1.315	0.038858316	0.043649845	0.052793655	0.028140268	0.513280189	0.147127512
1.316	0.038872432	0.043759153	0.05286728	0.028116458	0.518642477	0.143957103
1.317	0.038890208	0.0438638	0.052934364	0.028098929	0.523925651	0.140839419
1.318	0.03891168	0.043963655	0.052994861	0.028087693	0.529126938	0.137775274
1.319	0.038936875	0.044058589	0.053048732	0.028082758	0.534243647	0.13476544
1.32	0.038965819	0.044148478	0.053095944	0.028084126	0.539273171	0.131810648
1.321	0.038998533	0.044233202	0.053136471	0.02809179	0.544212994	0.128911586
1.322	0.039035033	0.044312642	0.053170294	0.028105738	0.549060689	0.126068901
1.323	0.039075331	0.044386686	0.0531974	0.028125952	0.553813921	0.123283197
1.324	0.039119436	0.044455225	0.053217784	0.028152405	0.55847045	0.120555037
1.325	0.039167348	0.044518154	0.053231449	0.028185064	0.563028134	0.117884944
1.326	0.039219068	0.044575376	0.053238403	0.028223891	0.567484929	0.115273396
1.327	0.039274587	0.044626793	0.053238665	0.028268839	0.571838891	0.112720833
1.328	0.039333895	0.044672318	0.053232258	0.028319856	0.576088179	0.110227652
1.329	0.039396976	0.044711866	0.053219214	0.028376883	0.580231054	0.10779421
1.33	0.039463809	0.044745358	0.053199573	0.028439853	0.584265885	0.105420824
1.331	0.039534367	0.044772721	0.053173382	0.028508694	0.588191142	0.10310777
1.332	0.03960862	0.044793888	0.053140694	0.028583326	0.592005407	0.100855286
1.333	0.039686533	0.044808797	0.053101574	0.028663663	0.595707366	0.098663568
1.334	0.039768065	0.044817394	0.053056089	0.028749613	0.599295815	0.096532778
1.335	0.039853171	0.044819629	0.053004319	0.028841076	0.602769659	0.094463034
1.336	0.039941801	0.04481546	0.052946347	0.028937947	0.606127915	0.092454421
1.337	0.0400339	0.044804851	0.052882266	0.029040111	0.609369705	0.090506984
1.338	0.040129409	0.044787773	0.052812176	0.029147451	0.612494266	0.088620733
1.339	0.040228264	0.044764205	0.052736183	0.029259841	0.615500943	0.08679564
1.34	0.040330395	0.04473413	0.052654403	0.029377146	0.618389193	0.085031644
1.341	0.040435731	0.04469754	0.052566955	0.02949923	0.621158581	0.083328648
1.342	0.040544193	0.044654435	0.052473969	0.029625946	0.623808784	0.081686519
1.343	0.0406557	0.04460482	0.052375579	0.029757141	0.626339588	0.080105094
1.344	0.040770166	0.044548709	0.052271926	0.029892657	0.628750888	0.078584174
1.345	0.040887501	0.044486122	0.052163158	0.030032329	0.631042689	0.077123529
1.346	0.04100761	0.044417089	0.05204943	0.030175985	0.6332151	0.075722897
1.347	0.041130396	0.044341644	0.051930901	0.030323448	0.635268341	0.074381986
1.348	0.041255757	0.044259832	0.051807737	0.030474531	0.637202735	0.073100472
1.349	0.041383589	0.044171701	0.051680108	0.030629045	0.63901871	0.071878005
1.35	0.041513783	0.044077312	0.051548193	0.030786793	0.6407168	0.070714201
1.351	0.041646226	0.043976728	0.05141217	0.03094757	0.642297637	0.069608652
1.352	0.041780806	0.043870025	0.051272227	0.031111169	0.643761957	0.068560922
1.353	0.041917403	0.043757281	0.051128554	0.031277373	0.645110592	0.067570547
1.354	0.042055898	0.043638586	0.050981345	0.031445961	0.646344473	0.066637038
1.355	0.042196168	0.043514035	0.050830798	0.031616706	0.647464626	0.06575988
1.356	0.042338088	0.043383729	0.050677114	0.031789374	0.648472169	0.064938534
1.357	0.042481531	0.04324778	0.050520497	0.031963727	0.649368313	0.064172438
